<?xml version="1.0" standalone="no"?>
<!DOCTYPE svg PUBLIC "-//W3C//DTD SVG 20010904//EN"
 "http://www.w3.org/TR/2001/REC-SVG-20010904/DTD/svg10.dtd">
<svg version="1.0" xmlns="http://www.w3.org/2000/svg"
 width="512.000000pt" height="512.000000pt" viewBox="0 0 512.000000 512.000000"
 preserveAspectRatio="xMidYMid meet">
<metadata>
Created by potrace 1.14, written by Peter Selinger 2001-2017
</metadata>
<g transform="translate(0.000000,512.000000) scale(0.100000,-0.100000)"
fill="#000000" stroke="none">
<path d="M3581 4624 c-18 -10 -45 -35 -60 -58 l-26 -40 -1 -1959 c-1 -1916 0
-1959 19 -1997 55 -112 216 -116 278 -7 l23 41 0 1952 c0 1828 -1 1955 -18
1991 -34 75 -141 114 -215 77z"/>
<path d="M1936 4298 c-22 -13 -49 -39 -60 -58 -21 -35 -21 -39 -22 -1670 -1
-1830 -7 -1686 73 -1739 56 -38 122 -38 176 -1 77 53 71 -91 71 1734 l0 1632
-23 40 c-43 77 -142 105 -215 62z"/>
<path d="M3032 3873 c-39 -19 -66 -55 -79 -103 -5 -19 -8 -566 -8 -1231 1
-1141 2 -1198 20 -1225 39 -62 75 -84 140 -84 57 0 96 19 132 67 l28 36 1
1215 c1 1213 1 1214 -20 1256 -40 79 -133 109 -214 69z"/>
<path d="M855 3665 c-45 -18 -83 -68 -90 -118 -3 -23 -5 -483 -3 -1023 l3
-981 29 -37 c36 -48 85 -69 142 -62 56 6 77 18 111 63 l28 36 0 1018 c0 1012
0 1018 -21 1045 -48 66 -129 89 -199 59z"/>
<path d="M4128 3607 c-41 -24 -60 -44 -76 -80 -9 -22 -12 -240 -12 -965 0
-892 1 -939 19 -978 39 -85 148 -115 229 -62 77 51 72 -16 72 1035 0 893 -1
940 -19 979 -35 78 -143 114 -213 71z"/>
<path d="M2485 3554 c-17 -9 -42 -32 -55 -52 l-25 -36 -3 -894 c-2 -879 -2
-896 18 -936 29 -60 73 -85 146 -83 70 2 104 23 134 83 20 39 20 58 20 922 0
976 4 923 -66 980 -32 27 -47 32 -89 31 -27 0 -64 -7 -80 -15z"/>
<path d="M1388 3338 c-20 -11 -46 -39 -59 -61 l-23 -41 0 -672 c0 -749 -2
-724 68 -772 76 -52 174 -34 224 41 l27 41 1 678 c1 655 0 681 -19 719 -27 54
-68 81 -131 85 -38 2 -61 -3 -88 -18z"/>
<path d="M4679 3237 c-47 -23 -75 -60 -86 -113 -5 -21 -8 -286 -7 -589 1 -589
-1 -574 52 -623 72 -68 177 -57 239 25 l28 36 1 575 c1 565 1 574 -20 615 -27
52 -63 78 -121 87 -36 5 -55 3 -86 -13z"/>
<path d="M296 3017 c-22 -12 -49 -38 -60 -57 -20 -34 -21 -50 -21 -400 l0
-365 23 -38 c44 -69 131 -94 204 -58 56 28 78 60 87 124 3 29 6 196 5 372 -1
269 -3 325 -16 350 -46 87 -141 118 -222 72z"/>
</g>
</svg>
